<?xml version="1.0" encoding="utf-8"?>
<!-- Generator: Adobe Illustrator 16.0.0, SVG Export Plug-In . SVG Version: 6.00 Build 0)  -->
<!DOCTYPE svg PUBLIC "-//W3C//DTD SVG 1.0//EN" "http://www.w3.org/TR/2001/REC-SVG-20010904/DTD/svg10.dtd">
<svg version="1.0" id="Calque_1" xmlns="http://www.w3.org/2000/svg" xmlns:xlink="http://www.w3.org/1999/xlink" x="0px" y="0px"
	 width="40px" height="40px" viewBox="0 0 40 40" enable-background="new 0 0 40 40" xml:space="preserve">
<g>
	<path fill="#1E4548" d="M39.048,20c-0.063,0.494-0.142,0.986-0.187,1.482c-0.157,1.789-0.651,3.49-1.334,5.142
		c-0.95,2.308-2.336,4.327-4.1,6.089c-0.98,0.982-2.556,1.219-3.839,0.588c-1.208-0.594-1.969-2.064-1.776-3.423
		c0.146-1.032,0.83-1.735,1.483-2.46c1.562-1.73,2.522-3.752,2.89-6.047c0.112-0.712,0.181-1.439,0.188-2.159
		c0.025-2.6-0.716-4.986-2.227-7.091c-1.989-2.771-4.662-4.513-8.062-5.078c-3.718-0.619-7.057,0.278-9.96,2.631
		c-2.296,1.861-3.768,4.298-4.297,7.218c-0.687,3.788,0.207,7.215,2.597,10.241c0.284,0.358,0.616,0.678,0.919,1.021
		c0.953,1.078,1.121,2.3,0.542,3.587c-0.598,1.329-1.695,1.907-3.14,1.897c-1.243-0.007-2.063-0.729-2.817-1.584
		c-1.286-1.462-2.372-3.054-3.194-4.822c-0.789-1.698-1.277-3.485-1.581-5.325c-0.079-0.479-0.068-0.974-0.109-1.46
		c-0.015-0.183-0.061-0.362-0.093-0.542c0-0.444,0-0.889,0-1.333c0.031-0.102,0.078-0.202,0.092-0.306
		c0.131-1.025,0.191-2.064,0.396-3.074c0.71-3.5,2.377-6.514,4.813-9.102C7.841,4.403,9.705,3.077,11.8,2.082
		c1.89-0.897,3.866-1.496,5.954-1.703c0.56-0.056,1.117-0.125,1.675-0.189c0.413,0,0.825,0,1.238,0
		c0.085,0.031,0.169,0.079,0.256,0.09c1.039,0.132,2.093,0.191,3.116,0.398c3.416,0.69,6.385,2.287,8.936,4.643
		c1.938,1.793,3.436,3.917,4.477,6.354c0.721,1.689,1.226,3.434,1.408,5.266c0.056,0.545,0.125,1.088,0.188,1.631
		C39.048,19.047,39.048,19.524,39.048,20z"/>
	<path fill="#1E4548" d="M19.715,40.189c-0.58-0.246-1.207-0.418-1.729-0.752c-0.895-0.576-1.302-1.508-1.306-2.533
		c-0.026-6.156-0.034-12.314,0-18.471c0.01-1.779,1.565-3.19,3.271-3.221c1.813-0.032,3.389,1.522,3.386,3.408
		c-0.009,6.015-0.012,12.028,0.002,18.044c0.004,1.795-1.274,3.313-2.946,3.445c-0.038,0.004-0.071,0.054-0.106,0.082
		C20.096,40.189,19.905,40.189,19.715,40.189z"/>
</g>
</svg>
