<?xml version="1.0" encoding="utf-8"?>
<!-- Generator: Adobe Illustrator 16.0.0, SVG Export Plug-In . SVG Version: 6.00 Build 0)  -->
<!DOCTYPE svg PUBLIC "-//W3C//DTD SVG 1.0//EN" "http://www.w3.org/TR/2001/REC-SVG-20010904/DTD/svg10.dtd">
<svg version="1.0" id="Capa_1" xmlns="http://www.w3.org/2000/svg" xmlns:xlink="http://www.w3.org/1999/xlink" x="0px" y="0px"
	 width="40px" height="40px" viewBox="0 0 40 40" enable-background="new 0 0 40 40" xml:space="preserve">
<path fill="#1E4548" d="M10.013,32.503c0.461,0.369,0.698,0.962,0.58,1.542l-0.554,2.872c-0.132,0.711,0.264,1.396,0.922,1.647
	l1.792,0.671l1.792,0.672c0.659,0.251,1.41-0.027,1.778-0.646l1.423-2.463c0.303-0.513,0.87-0.817,1.462-0.791
	c0.843,0.039,1.7,0.013,2.543-0.079c0.593-0.065,1.16,0.184,1.502,0.672l1.647,2.424c0.408,0.592,1.185,0.804,1.831,0.514
	l1.739-0.804l1.739-0.804c0.658-0.303,1.001-1.027,0.816-1.726l-0.737-2.74c-0.158-0.58,0.04-1.186,0.474-1.581
	c0.632-0.58,1.226-1.199,1.752-1.858c0.369-0.461,0.962-0.685,1.528-0.58L36.917,30c0.711,0.132,1.396-0.264,1.646-0.922
	l0.672-1.792l0.672-1.792c0.25-0.659-0.026-1.41-0.645-1.778l-2.478-1.397c-0.527-0.29-0.83-0.869-0.803-1.476
	c0.039-0.843,0.013-1.686-0.08-2.543c-0.066-0.593,0.185-1.16,0.672-1.502l2.424-1.647c0.593-0.408,0.803-1.186,0.514-1.831
	l-0.803-1.739l-0.804-1.739c-0.303-0.659-1.028-1.001-1.726-0.817l-2.741,0.738c-0.58,0.158-1.199-0.04-1.595-0.487
	c-0.593-0.672-1.238-1.265-1.923-1.805c-0.474-0.369-0.711-0.962-0.592-1.555l0.54-2.833C30,2.371,29.605,1.686,28.946,1.436
	l-1.792-0.672l-1.792-0.672c-0.659-0.25-1.41,0.026-1.779,0.646l-1.449,2.503c-0.303,0.514-0.856,0.804-1.449,0.777
	c-0.856-0.04-1.713-0.013-2.569,0.092c-0.593,0.066-1.172-0.185-1.502-0.685l-1.621-2.385c-0.395-0.58-1.159-0.804-1.805-0.54
	l-1.739,0.804L9.75,2.121C9.091,2.424,8.748,3.149,8.946,3.847l0.751,2.78C9.854,7.193,9.67,7.813,9.222,8.208
	C8.59,8.788,7.997,9.42,7.47,10.092c-0.369,0.461-0.961,0.698-1.541,0.58l-2.846-0.541C2.371,10,1.686,10.395,1.436,11.054
	l-0.672,1.792l-0.672,1.792c-0.25,0.659,0.026,1.41,0.645,1.779l2.504,1.449c0.514,0.303,0.804,0.856,0.777,1.449
	c-0.04,0.856-0.013,1.713,0.093,2.569c0.066,0.593-0.185,1.173-0.686,1.502L1.053,24.98C0.46,25.389,0.25,26.167,0.54,26.812
	l0.804,1.739l0.804,1.739c0.303,0.659,1.028,1.001,1.726,0.817l2.78-0.751c0.58-0.158,1.186,0.04,1.581,0.475
	C8.788,31.437,9.38,32.003,10.013,32.503z M16.376,12.385c4.216-2.003,9.262-0.211,11.265,4.005
	c2.003,4.216,0.211,9.262-4.005,11.265c-4.216,2.003-9.262,0.211-11.265-4.005C10.369,19.434,12.161,14.387,16.376,12.385z"/>
</svg>
